<svg fill="#405a80" viewBox="0 0 512 512" xmlns="http://www.w3.org/2000/svg"><path d="m168 48h176a56 56 0 0 1 56 56v8h8a56 56 0 0 1 56 56v160a56 56 0 0 1 -56 56h-8v40c0 22-18 40-40 40h-208c-22 0-40-18-40-40v-40h-8a56 56 0 0 1 -56-56v-160a56 56 0 0 1 56-56h8v-8a56 56 0 0 1 56-56zm-24 64h224v-8a24 24 0 0 0 -24-24h-176a24 24 0 0 0 -24 24zm-32 240v-88c0-22 18-40 40-40h208c22 0 40 18 40 40v88h8a24 24 0 0 0 24-24v-160a24 24 0 0 0 -24-24h-304a24 24 0 0 0 -24 24v160a24 24 0 0 0 24 24zm40-96c-4 0-8 4-8 8v160c0 4 4 8 8 8h208c4 0 8-4 8-8v-160c0-4-4-8-8-8zm240-48a24 24 0 1 0 0-48 24 24 0 0 0 0 48z"/></svg>