<svg xmlns="http://www.w3.org/2000/svg" viewBox="0 0 512 512" fill="#405a80">
  <path d="M136.9 39.1c3.3 2.7 7 6.2 11.4 10.5 9.3 9.1 20 23.8 29.3 37.8 9.4 14.2 18 29.2 22.9 39.6 2.7 6 5.2 11.3 7 16 1.7 4.8 3.2 10 3.2 15.8 0 12-6.5 21.2-12.7 29.7l-4.7 6.2a65.7 65.7 0 0 0-6.2 9 10.3 10.3 0 0 0-1.2 8c1 4.6 5.3 14.8 13.7 28a230.5 230.5 0 0 0 72.5 72.4c13 8 23 12.2 27.7 13.2 3.3.7 5.4.3 8.2-1.2a68 68 0 0 0 9.5-6.6l5.6-4.2h.1c8.6-6.4 18.1-13.5 30.2-13.5 6 0 11.3 1.7 16 3.6 4.5 1.9 9.7 4.5 15.3 7.3l.5.3a460 460 0 0 1 39 22.7c14 9.1 29 19.7 38.2 29 4.3 4.4 7.8 8.1 10.5 11.5 2.5 3.2 5.3 7.4 6.5 12.7 1.3 5.9.1 10.7-1.1 14.1l-1.7 4-.2.6-1.2 2.8c-4.2 10-9.3 19.4-15.3 28.4-11.6 17.5-22.5 28.8-39.4 36.7a70.7 70.7 0 0 1-40.9 5.8c-18.8-2.3-43.2-10.7-76.6-29.3a569.2 569.2 0 0 1-138.2-103.4A524.1 524.1 0 0 1 61 208.5c-33-60-33-97-23.6-117.2 8-16.9 19.4-27.7 36.7-39.3h.1c9-6 18.5-11 28.4-15.1a107.3 107.3 0 0 0 3.4-1.5l4-1.7c3.4-1.2 8.3-2.4 14.2-1.1 5.2 1.2 9.4 4 12.7 6.5ZM115 66.4c-8 3.4-15.8 7.5-23.2 12.3C77.2 88.5 71 95.3 66.4 105c-3 6.4-8.5 31.6 22.6 88.1 31.3 57 53 85.5 98.4 130.9 45.4 45.2 80 69.4 131.3 98.1 31.4 17.6 51.7 24 64.9 25.5 12.4 1.6 18.9-.9 23.4-3 9.7-4.5 16.5-10.8 26.3-25.3a143 143 0 0 0 13.6-26.2c-1.5-1.7-3.7-4.2-7.3-7.7-6.6-6.7-19-15.8-32.7-24.7a429 429 0 0 0-49.6-27.6c-3.1-1.2-4-1.2-4-1.2.3 0-.7-.6-11.2 7.2l-3.4 2.7c-4.7 3.5-10.3 7.9-16 10.8-8.3 4.4-18 6.6-29.6 4a131.7 131.7 0 0 1-37.9-17.3 262.5 262.5 0 0 1-82.6-82.4 133 133 0 0 1-18-38.4 42.1 42.1 0 0 1 4.2-29.6c2.8-5.3 7-10.9 10.5-15.5l2.9-3.7c6.7-9.2 6.5-10.6 6.5-10.8 0-.3 0-1.5-1.2-4.7s-3.1-7.3-6-13.6c-4-8.5-11.7-22-20.6-35.5a222 222 0 0 0-25-32.6c-3.6-3.6-6-5.9-7.9-7.4l-3 1.4Z"/>
</svg>
